<svg width="206" height="47" viewBox="0 0 206 47" fill="none" xmlns="http://www.w3.org/2000/svg">
<g clip-path="url(#clip0_1044_8)">
<path d="M51.0783 23.5308C51.0783 21.4646 51.4978 19.6628 52.3376 18.1251C53.177 16.5635 54.3402 15.3622 55.8277 14.5214C57.3147 13.6565 59.0177 13.224 60.9368 13.224C63.4072 13.224 65.4462 13.8486 67.0535 15.098C68.6844 16.3232 69.7757 18.0531 70.3277 20.2874H64.8947C64.6068 19.4225 64.115 18.7498 63.4195 18.2693C62.7477 17.7648 61.9083 17.5125 60.9009 17.5125C59.4617 17.5125 58.3222 18.0411 57.4827 19.0982C56.643 20.1313 56.2234 21.6088 56.2234 23.5308C56.2234 25.4288 56.643 26.9064 57.4827 27.9634C58.3222 28.9965 59.4617 29.5131 60.9009 29.5131C62.9395 29.5131 64.2708 28.6001 64.8947 26.7742H70.3277C69.7757 28.9365 68.6844 30.6544 67.0535 31.9276C65.4221 33.2008 63.3835 33.8376 60.9368 33.8376C59.0177 33.8376 57.3147 33.417 55.8277 32.5763C54.3402 31.7114 53.177 30.5102 52.3376 28.9725C51.4978 27.4109 51.0783 25.597 51.0783 23.5308ZM72.7225 23.4587C72.7225 21.4406 73.1183 19.6507 73.9098 18.0891C74.7251 16.5275 75.8168 15.3262 77.184 14.4853C78.575 13.6445 80.1222 13.224 81.8255 13.224C83.3125 13.224 84.6078 13.5243 85.7113 14.1249C86.8386 14.7256 87.7381 15.4824 88.4098 16.3953V13.5483H93.483V33.5133H88.4098V30.5942C87.7622 31.5312 86.8627 32.3121 85.7113 32.9367C84.5837 33.5374 83.2765 33.8376 81.7895 33.8376C80.1103 33.8376 78.575 33.4052 77.184 32.5402C75.8168 31.6753 74.7251 30.4619 73.9098 28.9004C73.1183 27.3148 72.7225 25.5009 72.7225 23.4587ZM88.4098 23.5308C88.4098 22.3055 88.1698 21.2604 87.6902 20.3955C87.2102 19.5066 86.5626 18.8339 85.7473 18.3774C84.9316 17.8969 84.0562 17.6566 83.1207 17.6566C82.1853 17.6566 81.3217 17.8849 80.5302 18.3414C79.7386 18.7979 79.091 19.4705 78.5872 20.3595C78.1073 21.2244 77.8676 22.2575 77.8676 23.4587C77.8676 24.66 78.1073 25.7171 78.5872 26.6301C79.091 27.519 79.7386 28.2037 80.5302 28.6842C81.3455 29.1647 82.209 29.405 83.1207 29.405C84.0562 29.405 84.9316 29.1767 85.7473 28.7202C86.5626 28.2397 87.2102 27.567 87.6902 26.7021C88.1698 25.8132 88.4098 24.7561 88.4098 23.5308ZM123.157 13.26C125.604 13.26 127.571 14.0168 129.058 15.5304C130.569 17.02 131.324 19.1102 131.324 21.801V33.5133H126.287V22.4857C126.287 20.9241 125.891 19.7348 125.1 18.918C124.308 18.0771 123.229 17.6566 121.862 17.6566C120.494 17.6566 119.403 18.0771 118.587 18.918C117.796 19.7348 117.4 20.9241 117.4 22.4857V33.5133H112.363V22.4857C112.363 20.9241 111.967 19.7348 111.176 18.918C110.384 18.0771 109.305 17.6566 107.937 17.6566C106.546 17.6566 105.443 18.0771 104.627 18.918C103.836 19.7348 103.44 20.9241 103.44 22.4857V33.5133H98.4026V13.5483H103.44V15.9629C104.087 15.122 104.915 14.4613 105.922 13.9808C106.954 13.5003 108.081 13.26 109.305 13.26C110.864 13.26 112.255 13.5964 113.478 14.2691C114.702 14.9178 115.649 15.8548 116.321 17.08C116.968 15.9268 117.904 15.0019 119.127 14.3051C120.375 13.6084 121.718 13.26 123.157 13.26ZM141.969 17.6927V27.3508C141.969 28.0235 142.125 28.516 142.437 28.8284C142.773 29.1167 143.324 29.2608 144.092 29.2608H146.431V33.5133H143.264C139.019 33.5133 136.896 31.4472 136.896 27.3148V17.6927H134.521V13.5483H136.896V8.61116H141.969V13.5483H146.431V17.6927H141.969ZM158.905 33.8376C156.986 33.8376 155.259 33.417 153.724 32.5763C152.189 31.7114 150.977 30.498 150.09 28.9365C149.226 27.3748 148.795 25.573 148.795 23.5308C148.795 21.4887 149.238 19.6868 150.126 18.1251C151.037 16.5635 152.273 15.3622 153.832 14.5214C155.391 13.6565 157.13 13.224 159.049 13.224C160.968 13.224 162.707 13.6565 164.266 14.5214C165.825 15.3622 167.048 16.5635 167.936 18.1251C168.847 19.6868 169.303 21.4887 169.303 23.5308C169.303 25.573 168.835 27.3748 167.9 28.9365C166.989 30.498 165.741 31.7114 164.158 32.5763C162.599 33.417 160.848 33.8376 158.905 33.8376ZM158.905 29.441C159.816 29.441 160.668 29.2248 161.46 28.7923C162.275 28.3358 162.923 27.6631 163.402 26.7742C163.882 25.8853 164.122 24.8041 164.122 23.5308C164.122 21.6328 163.618 20.1793 162.611 19.1702C161.628 18.1371 160.416 17.6206 158.977 17.6206C157.538 17.6206 156.326 18.1371 155.343 19.1702C154.383 20.1793 153.904 21.6328 153.904 23.5308C153.904 25.4288 154.371 26.8943 155.307 27.9274C156.267 28.9365 157.466 29.441 158.905 29.441ZM197.752 13.26C200.199 13.26 202.166 14.0168 203.653 15.5304C205.164 17.02 205.92 19.1102 205.92 21.801V33.5133H200.883V22.4857C200.883 20.9241 200.487 19.7348 199.695 18.918C198.904 18.0771 197.824 17.6566 196.457 17.6566C195.09 17.6566 193.999 18.0771 193.183 18.918C192.391 19.7348 191.995 20.9241 191.995 22.4857V33.5133H186.958V22.4857C186.958 20.9241 186.562 19.7348 185.771 18.918C184.979 18.0771 183.9 17.6566 182.533 17.6566C181.142 17.6566 180.038 18.0771 179.223 18.918C178.431 19.7348 178.035 20.9241 178.035 22.4857V33.5133H172.998V13.5483H178.035V15.9629C178.683 15.122 179.51 14.4613 180.518 13.9808C181.549 13.5003 182.677 13.26 183.9 13.26C185.459 13.26 186.85 13.5964 188.074 14.2691C189.297 14.9178 190.245 15.8548 190.916 17.08C191.564 15.9268 192.499 15.0019 193.723 14.3051C194.97 13.6084 196.313 13.26 197.752 13.26Z" fill="#004A7C"/>
<path d="M34.1261 8.77637L42.9446 15.3013V30.3662L34.1261 25.2065V8.77637Z" fill="#004A7C" stroke="#FBFBFB" stroke-miterlimit="10"/>
<path d="M11.2403 21.8667V38.2238L1.99999 31.6988V16.8938L11.2403 21.8667Z" fill="#004A7C" stroke="#FBFBFB" stroke-miterlimit="10"/>
<path d="M15.6535 46L42.9446 30.3662L34.126 25.2063L11.2402 38.2238L15.6535 46Z" fill="#004A7C" stroke="#FBFBFB" stroke-miterlimit="10"/>
<path d="M34.1261 8.77627L29.2991 1L1.99999 16.8938L11.2403 21.8667L34.1261 8.77627Z" fill="#004A7C" stroke="#FBFBFB" stroke-miterlimit="10"/>
</g>
<defs>
<clipPath id="clip0_1044_8">
<rect width="206" height="47" fill="white"/>
</clipPath>
</defs>
</svg>
